<svg width="17" height="17" viewBox="0 0 17 17" fill="none" xmlns="http://www.w3.org/2000/svg">
<path d="M4.9636 8.70985C4.9636 8.25385 4.6468 7.98145 4.0882 7.98145C3.8602 7.98145 3.706 8.00365 3.625 8.02525V9.48985C3.721 9.51145 3.8386 9.51925 4 9.51925C4.5958 9.51925 4.9636 9.21745 4.9636 8.70985ZM8.4232 7.99585C8.173 7.99585 8.011 8.01805 7.915 8.04025V11.285C8.011 11.3072 8.1652 11.3072 8.305 11.3072C9.3202 11.3144 9.9826 10.7552 9.9826 9.57085C9.9904 8.54065 9.3868 7.99585 8.4232 7.99585Z" fill="#8C8C8C"/>
<path d="M15.0508 6.08945H14.644V4.12685C14.6437 4.11438 14.6425 4.10195 14.6404 4.08965C14.6411 4.01072 14.6131 3.93421 14.5618 3.87425L11.296 0.14465L11.2936 0.14225C11.2521 0.0972447 11.1993 0.0642829 11.1406 0.04685L11.1226 0.0408499C11.0977 0.0346345 11.0721 0.0314119 11.0464 0.03125H3.0202C2.6536 0.03125 2.356 0.32945 2.356 0.69545V6.08945H1.9492C1.4248 6.08945 1 6.51425 1 7.03865V11.9754C1 12.4992 1.4254 12.9246 1.9492 12.9246H2.356V16.3044C2.356 16.6704 2.6536 16.9687 3.0202 16.9687H13.9798C14.3458 16.9687 14.644 16.6704 14.644 16.3044V12.9246H15.0508C15.5752 12.9246 16 12.4992 16 11.9754V7.03865C16 6.51425 15.5746 6.08945 15.0508 6.08945ZM3.0202 0.69545H10.714V4.09385C10.714 4.27745 10.8628 4.42565 11.0464 4.42565H13.9804V6.08945H3.0202V0.69545ZM11.1742 9.53345C11.1742 10.4826 10.8286 11.1378 10.3492 11.5422C9.8272 11.976 9.0328 12.1824 8.0614 12.1824C7.48 12.1824 7.0684 12.1453 6.7882 12.1093V7.23785C7.2004 7.17185 7.7374 7.13525 8.3044 7.13525C9.2458 7.13525 9.8566 7.30445 10.3348 7.66505C10.8502 8.04725 11.1742 8.65805 11.1742 9.53345ZM2.5126 12.1314V7.23785C2.8582 7.17905 3.3442 7.13525 4.0282 7.13525C4.72 7.13525 5.2132 7.26785 5.5438 7.53245C5.86 7.78265 6.073 8.19485 6.073 8.68025C6.073 9.16625 5.9116 9.57785 5.617 9.85745C5.2342 10.2181 4.6678 10.38 4.0054 10.38C3.8584 10.38 3.7258 10.3728 3.6232 10.3579V12.1314H2.5126ZM13.9798 16.1244H3.0202V12.9246H13.9798V16.1244ZM14.9422 8.09165H13.036V9.22505H14.8168V10.1376H13.036V12.1314H11.911V7.17185H14.9422V8.09165Z" fill="#8C8C8C"/>
</svg>
