<svg width="18" height="17" viewBox="0 0 18 17" fill="none" xmlns="http://www.w3.org/2000/svg">
<path d="M15.5508 6.08141H15.144V4.11149C15.1437 4.09897 15.1425 4.08649 15.1404 4.07415C15.141 3.99501 15.1128 3.91837 15.0612 3.85854L11.796 0.114425L11.7936 0.112016C11.774 0.0908137 11.7519 0.0721957 11.7276 0.0566104L11.706 0.0433609C11.6853 0.0317847 11.6633 0.0224963 11.6406 0.0156579L11.6226 0.0096357C11.5977 0.00339711 11.5721 0.00016249 11.5464 0H3.5202C3.1536 0 2.856 0.299313 2.856 0.666678V6.08081H2.4492C1.9248 6.08081 1.5 6.50719 1.5 7.03355V11.9888C1.5 12.5145 1.9254 12.9415 2.4492 12.9415H2.856V16.3333C2.856 16.7007 3.1536 17 3.5202 17H14.4798C14.8458 17 15.144 16.7007 15.144 16.3333V12.9415H15.5508C16.0752 12.9415 16.5 12.5145 16.5 11.9888V7.03355C16.5 6.50779 16.0752 6.08141 15.5508 6.08141ZM3.5202 0.667281H11.214V4.07836C11.214 4.26265 11.3628 4.412 11.5464 4.412H14.4804V6.08201H3.5202V0.667281ZM10.9728 10.9373V11.9039H7.8036V6.81192H8.9556V10.9367H10.9728V10.9373ZM2.8146 11.9039L4.2822 9.32808L2.8668 6.81253H4.1838L4.6278 7.74178C4.7784 8.05133 4.8912 8.30066 5.0118 8.58793H5.0268C5.1474 8.26272 5.2452 8.03628 5.373 7.74178L5.802 6.81253H7.1118L5.6814 9.29797L7.1868 11.9045H5.862L5.403 10.983C5.2152 10.6277 5.0946 10.3633 4.9512 10.0688H4.9362C4.8306 10.3639 4.7028 10.6283 4.545 10.983L4.1232 11.9045L2.8146 11.9039ZM14.4798 16.1539H3.5202V12.9421H14.4798V16.1539ZM12.8916 11.9797C12.3126 11.9797 11.7402 11.8286 11.4546 11.6696L11.6874 10.718C11.9964 10.8764 12.4704 11.0354 12.9594 11.0354C13.4862 11.0354 13.7646 10.8162 13.7646 10.4838C13.7646 10.1664 13.524 9.98512 12.9138 9.76591C12.0708 9.47081 11.5218 9.00287 11.5218 8.26212C11.5218 7.39309 12.2442 6.72882 13.4412 6.72882C14.013 6.72882 14.4348 6.84987 14.7354 6.98597L14.4792 7.91523C14.1484 7.75443 13.7854 7.67162 13.4178 7.67313C12.921 7.67313 12.6804 7.89957 12.6804 8.16455C12.6804 8.48916 12.966 8.6331 13.6212 8.88242C14.517 9.21486 14.9382 9.6828 14.9382 10.4007C14.9394 11.2546 14.2848 11.9797 12.8916 11.9797Z" fill="#8C8C8C"/>
</svg>
