<svg width="15" height="19" viewBox="0 0 15 19" fill="none" xmlns="http://www.w3.org/2000/svg">
<path d="M0.867188 12.4102L4.24219 12.082C4.44531 13.2148 4.85547 14.0469 5.47266 14.5781C6.09766 15.1094 6.9375 15.375 7.99219 15.375C9.10938 15.375 9.94922 15.1406 10.5117 14.6719C11.082 14.1953 11.3672 13.6406 11.3672 13.0078C11.3672 12.6016 11.2461 12.2578 11.0039 11.9766C10.7695 11.6875 10.3555 11.4375 9.76172 11.2266C9.35547 11.0859 8.42969 10.8359 6.98438 10.4766C5.125 10.0156 3.82031 9.44922 3.07031 8.77734C2.01562 7.83203 1.48828 6.67969 1.48828 5.32031C1.48828 4.44531 1.73438 3.62891 2.22656 2.87109C2.72656 2.10547 3.44141 1.52344 4.37109 1.125C5.30859 0.726562 6.4375 0.527344 7.75781 0.527344C9.91406 0.527344 11.5352 1 12.6211 1.94531C13.7148 2.89063 14.2891 4.15234 14.3438 5.73047L10.875 5.88281C10.7266 5 10.4062 4.36719 9.91406 3.98438C9.42969 3.59375 8.69922 3.39844 7.72266 3.39844C6.71484 3.39844 5.92578 3.60547 5.35547 4.01953C4.98828 4.28516 4.80469 4.64062 4.80469 5.08594C4.80469 5.49219 4.97656 5.83984 5.32031 6.12891C5.75781 6.49609 6.82031 6.87891 8.50781 7.27734C10.1953 7.67578 11.4414 8.08984 12.2461 8.51953C13.0586 8.94141 13.6914 9.52344 14.1445 10.2656C14.6055 11 14.8359 11.9102 14.8359 12.9961C14.8359 13.9805 14.5625 14.9023 14.0156 15.7617C13.4688 16.6211 12.6953 17.2617 11.6953 17.6836C10.6953 18.0977 9.44922 18.3047 7.95703 18.3047C5.78516 18.3047 4.11719 17.8047 2.95312 16.8047C1.78906 15.7969 1.09375 14.332 0.867188 12.4102Z" fill="#177263"/>
</svg>
